<svg width="393" height="182" viewBox="0 0 393 182" fill="none" xmlns="http://www.w3.org/2000/svg">
<path d="M394 176.894C394.552 176.894 395 177.342 395 177.894C395 178.446 394.552 178.894 394 178.894H354.268C355.144 178.35 355.929 177.674 356.597 176.894H394ZM353.661 176.894C352.629 177.635 351.413 178.137 350.095 178.318C350.034 178.189 350 178.045 350 177.894C350 177.342 350.448 176.894 351 176.894H353.661ZM356.6 172.894C356.364 173.61 356.031 174.283 355.614 174.894H351C350.448 174.894 350 174.446 350 173.894C350 173.342 350.448 172.894 351 172.894H356.6ZM394 172.894C394.552 172.894 395 173.342 395 173.894C395 174.446 394.552 174.894 394 174.894H357.93C358.249 174.262 358.505 173.593 358.686 172.894H394ZM356.856 168.894C356.949 169.38 357 169.881 357 170.394C357 170.562 356.993 170.728 356.982 170.894H351C350.448 170.894 350 170.446 350 169.894C350 169.342 350.448 168.894 351 168.894H356.856ZM394 168.894C394.552 168.894 395 169.342 395 169.894C395 170.446 394.552 170.894 394 170.894H358.987C358.995 170.728 359 170.561 359 170.394C359 169.884 358.961 169.383 358.888 168.894H394ZM354.802 164.894C355.361 165.483 355.832 166.156 356.192 166.894H351C350.448 166.894 350 166.446 350 165.894C350 165.342 350.448 164.894 351 164.894H354.802ZM394 164.894C394.552 164.894 395 165.342 395 165.894C395 166.446 394.552 166.894 394 166.894H358.367C358.102 166.185 357.758 165.516 357.347 164.894H394ZM350.193 162.484C350.742 162.566 351.273 162.706 351.779 162.894H351C350.669 162.894 350.375 162.732 350.193 162.484ZM394 160.894C394.552 160.894 395 161.342 395 161.894C395 162.446 394.552 162.894 394 162.894H355.604C354.599 162.008 353.416 161.321 352.114 160.894H394ZM394 156.894C394.552 156.894 395 157.342 395 157.894C395 158.446 394.552 158.894 394 158.894H351C350.448 158.894 350 158.446 350 157.894C350 157.342 350.448 156.894 351 156.894H394ZM394 152.894C394.552 152.894 395 153.342 395 153.894C395 154.446 394.552 154.894 394 154.894H351C350.448 154.894 350 154.446 350 153.894C350 153.342 350.448 152.894 351 152.894H394ZM394 148.894C394.552 148.894 395 149.342 395 149.894C395 150.446 394.552 150.894 394 150.894H351C350.448 150.894 350 150.446 350 149.894C350 149.342 350.448 148.894 351 148.894H394ZM394 144.894C394.552 144.894 395 145.342 395 145.894C395 146.446 394.552 146.894 394 146.894H351C350.448 146.894 350 146.446 350 145.894C350 145.342 350.448 144.894 351 144.894H394ZM394 140.894C394.552 140.894 395 141.342 395 141.894C395 142.446 394.552 142.894 394 142.894H351C350.448 142.894 350 142.446 350 141.894C350 141.342 350.448 140.894 351 140.894H394ZM394 136.894C394.552 136.894 395 137.342 395 137.894C395 138.446 394.552 138.894 394 138.894H351C350.909 138.894 350.822 138.88 350.738 138.858C351.593 138.334 352.384 137.787 353.105 137.229C353.249 137.118 353.391 137.006 353.529 136.894H394ZM354.802 132.894C354.269 133.525 353.6 134.204 352.8 134.894H351C350.448 134.894 350 134.446 350 133.894C350 133.342 350.448 132.894 351 132.894H354.802ZM394 132.894C394.552 132.894 395 133.342 395 133.894C395 134.446 394.552 134.894 394 134.894H355.698C356.347 134.206 356.887 133.531 357.303 132.894H394ZM354.14 130.894H351C350.448 130.894 350 130.446 350 129.894C350 129.43 350.316 129.041 350.744 128.928L354.14 130.894ZM394 128.894C394.552 128.894 395 129.342 395 129.894C395 130.446 394.552 130.894 394 130.894H358.13L354.676 128.894H394ZM394 124.894C394.552 124.894 395 125.342 395 125.894C395 126.446 394.552 126.894 394 126.894H351.221L350.054 126.218C350.019 126.116 350 126.007 350 125.894C350 125.342 350.448 124.894 351 124.894H394ZM394 120.894C394.552 120.894 395 121.342 395 121.894C395 122.446 394.552 122.894 394 122.894H351C350.448 122.894 350 122.446 350 121.894C350 121.342 350.448 120.894 351 120.894H394ZM394 116.894C394.552 116.894 395 117.342 395 117.894C395 118.446 394.552 118.894 394 118.894H351C350.448 118.894 350 118.446 350 117.894C350 117.342 350.448 116.894 351 116.894H394ZM394 112.894C394.552 112.894 395 113.342 395 113.894C395 114.446 394.552 114.894 394 114.894H351C350.448 114.894 350 114.446 350 113.894C350 113.342 350.448 112.894 351 112.894H394ZM394 108.894C394.552 108.894 395 109.342 395 109.894C395 110.446 394.552 110.894 394 110.894H351C350.448 110.894 350 110.446 350 109.894C350 109.342 350.448 108.894 351 108.894H394ZM394 104.894C394.552 104.894 395 105.342 395 105.894C395 106.446 394.552 106.894 394 106.894H351C350.448 106.894 350 106.446 350 105.894C350 105.342 350.448 104.894 351 104.894H394ZM394 100.894C394.552 100.894 395 101.342 395 101.894C395 102.446 394.552 102.894 394 102.894H351C350.448 102.894 350 102.446 350 101.894C350 101.342 350.448 100.894 351 100.894H394ZM394 96.8938C394.552 96.8938 395 97.3415 395 97.8938C395 98.4461 394.552 98.8938 394 98.8938H351C350.448 98.8938 350 98.4461 350 97.8938C350 97.3415 350.448 96.8938 351 96.8938H394ZM394 92.8938C394.552 92.8938 395 93.3415 395 93.8938C395 94.4461 394.552 94.8938 394 94.8938H351C350.448 94.8938 350 94.4461 350 93.8938C350 93.3415 350.448 92.8938 351 92.8938H394ZM394 88.8938C394.552 88.8938 395 89.3415 395 89.8938C395 90.4461 394.552 90.8938 394 90.8938H351C350.448 90.8938 350 90.4461 350 89.8938C350 89.3415 350.448 88.8938 351 88.8938H394ZM394 84.8938C394.552 84.8938 395 85.3415 395 85.8938C395 86.4461 394.552 86.8938 394 86.8938H351C350.448 86.8938 350 86.4461 350 85.8938C350 85.3415 350.448 84.8938 351 84.8938H394ZM394 80.8938C394.552 80.8938 395 81.3415 395 81.8938C395 82.4461 394.552 82.8938 394 82.8938H351C350.448 82.8938 350 82.4461 350 81.8938C350 81.3415 350.448 80.8938 351 80.8938H394ZM394 76.8938C394.552 76.8938 395 77.3415 395 77.8938C395 78.4461 394.552 78.8938 394 78.8938H351C350.448 78.8938 350 78.4461 350 77.8938C350 77.3415 350.448 76.8938 351 76.8938H394ZM394 72.8938C394.552 72.8938 395 73.3415 395 73.8938C395 74.4461 394.552 74.8938 394 74.8938H351C350.448 74.8938 350 74.4461 350 73.8938C350 73.3415 350.448 72.8938 351 72.8938H394ZM394 68.8938C394.552 68.8938 395 69.3415 395 69.8938C395 70.4461 394.552 70.8938 394 70.8938H351C350.448 70.8938 350 70.4461 350 69.8938C350 69.3415 350.448 68.8938 351 68.8938H394ZM394 64.8938C394.552 64.8938 395 65.3415 395 65.8938C395 66.4461 394.552 66.8938 394 66.8938H351C350.448 66.8938 350 66.4461 350 65.8938C350 65.3415 350.448 64.8938 351 64.8938H394ZM394 60.8938C394.552 60.8938 395 61.3415 395 61.8938C395 62.4461 394.552 62.8938 394 62.8938H351C350.448 62.8938 350 62.4461 350 61.8938C350 61.3415 350.448 60.8938 351 60.8938H394ZM394 56.8938C394.552 56.8938 395 57.3415 395 57.8938C395 58.4461 394.552 58.8938 394 58.8938H351C350.448 58.8938 350 58.4461 350 57.8938C350 57.3415 350.448 56.8938 351 56.8938H394Z" fill="#FACF72"/>
<path d="M209.667 11.3938H202C199.791 11.3938 198 13.1847 198 15.3938V176.394C198 178.603 199.791 180.394 202 180.394H393.5C393.776 180.394 394 180.618 394 180.894C394 181.17 393.776 181.394 393.5 181.394H0.5C0.223859 181.394 0 181.17 0 180.894C0 180.618 0.223858 180.394 0.5 180.394H8.5C10.7091 180.394 12.5 178.603 12.5 176.394V100.394C12.5 98.1847 10.7091 96.3938 8.5 96.3938H0.5C0.223858 96.3938 0 96.1699 0 95.8938C0 95.6177 0.223858 95.3938 0.5 95.3938H8.5C10.7091 95.3938 12.5 93.6029 12.5 91.3938V15.3938C12.5 13.1847 10.7091 11.3938 8.5 11.3938H0.5C0.223858 11.3938 0 11.1699 0 10.8938C0 10.6177 0.223858 10.3938 0.5 10.3938H209.889L209.667 11.3938ZM17.5 96.3938C15.2909 96.3938 13.5 98.1847 13.5 100.394V176.394C13.5 178.603 15.2909 180.394 17.5 180.394H100.75C102.959 180.394 104.75 178.603 104.75 176.394V100.394C104.75 98.1847 102.959 96.3938 100.75 96.3938H17.5ZM109.75 96.3938C107.541 96.3938 105.75 98.1847 105.75 100.394V176.394C105.75 178.603 107.541 180.394 109.75 180.394H193C195.209 180.394 197 178.603 197 176.394V100.394C197 98.1847 195.209 96.3938 193 96.3938H109.75ZM393.5 10.3938C393.776 10.3938 394 10.6177 394 10.8938C394 11.1699 393.776 11.3938 393.5 11.3938H386.5C384.291 11.3938 382.5 13.1847 382.5 15.3938V27.3713L381.5 26.9368V15.3938C381.5 13.1847 379.709 11.3938 377.5 11.3938H294.25C292.041 11.3938 290.25 13.1847 290.25 15.3938V89.3596L290 89.3938V130.394L289.25 130.912V100.394C289.25 99.904 289.161 99.435 289 99.0012V92.7854C289.161 92.3519 289.25 91.8833 289.25 91.3938V15.3938C289.25 13.1847 287.459 11.3938 285.25 11.3938H275.75L276.25 10.3938H393.5ZM253.714 96.3938H209.345L209.311 95.3938H253.643L253.714 96.3938ZM17.5 11.3938C15.2909 11.3938 13.5 13.1847 13.5 15.3938V91.3938C13.5 93.6029 15.2909 95.3938 17.5 95.3938H100.75C102.959 95.3938 104.75 93.6029 104.75 91.3938V15.3938C104.75 13.1847 102.959 11.3938 100.75 11.3938H17.5ZM109.75 11.3938C107.541 11.3938 105.75 13.1847 105.75 15.3938V91.3938C105.75 93.6029 107.541 95.3938 109.75 95.3938H193C195.209 95.3938 197 93.6029 197 91.3938V15.3938C197 13.1847 195.209 11.3938 193 11.3938H109.75Z" fill="url(#paint0_linear_645_16788)"/>
<g filter="url(#filter0_g_645_16788)">
<path d="M281.33 170.982C281.33 170.199 282.19 169.719 282.856 170.131L293.223 176.543C294.079 177.073 293.704 178.393 292.697 178.394H288.33C284.464 178.394 281.33 175.26 281.33 171.394V170.982ZM309.727 159.124C310.032 158.661 310.657 158.536 311.118 158.844C317.21 162.912 321.7 165.942 326.19 168.973L337.847 177.042C338.068 177.642 337.665 178.394 336.907 178.394H298.894C298.098 178.394 297.621 177.509 298.059 176.844L309.727 159.124ZM348.989 162.394C353.409 162.394 357 165.977 357 170.394C357 174.812 353.418 178.394 349 178.394H343.804C340.43 176.144 337.545 174.209 334.905 172.435L327.309 167.315L322.833 164.216C322.027 163.658 322.422 162.394 323.402 162.394H348.989ZM314.062 147.368C314.568 147.652 314.727 148.307 314.407 148.791L309.678 155.948C309.475 156.017 309.292 156.151 309.165 156.344L296.732 175.22C296.652 175.343 296.547 175.44 296.431 175.514C296.183 175.574 295.913 175.542 295.679 175.402L274.833 162.894C274.369 162.615 274.211 162.019 274.476 161.547L276.051 158.74C276.238 158.901 276.427 159.061 276.62 159.216C281.569 163.193 288.58 165.424 296.914 165.65C297.476 165.664 297.94 165.212 297.94 164.65V152.935C298.247 152.916 298.547 152.76 298.733 152.439L301.359 147.91L302.107 147.451C302.205 147.392 302.314 147.348 302.426 147.323C304.711 146.797 306.522 145.507 307.746 143.831L314.062 147.368ZM294.94 143.535C295.492 143.536 295.94 143.983 295.94 144.535V160.461C295.94 162.175 294.503 163.552 292.802 163.349C286.659 162.616 281.582 160.637 277.873 157.656C273.871 154.44 271.407 150.018 270.918 144.577C270.916 144.56 270.917 144.542 270.916 144.525C271.167 144.152 271.481 143.819 271.845 143.537C271.861 143.537 271.877 143.535 271.893 143.535H294.94ZM335.43 142.827C336.106 142.861 336.773 142.867 337.43 142.849V151.394C337.43 155.116 339.28 158.404 342.11 160.394H338.427C338.485 160.059 338.422 159.699 338.199 159.414C336.465 157.205 335.43 154.42 335.43 151.394V142.827ZM305.173 133.333C305.311 133.303 305.463 133.339 305.571 133.453C305.988 133.895 306.334 134.368 306.615 134.861L300.372 145.626L299.642 145.731C299.144 145.802 298.69 145.496 298.547 145.044L305.173 133.333ZM289.511 134.765C289.781 134.284 290.391 134.112 290.872 134.382L299.33 139.118L298.19 141.069C298.068 141.278 297.873 141.436 297.643 141.513L297.334 141.615C297.213 141.564 297.08 141.535 296.94 141.535H285.71L289.511 134.765ZM261.342 33.2649C263.656 33.1846 265.577 35.0397 265.577 37.3557C265.577 39.616 263.745 41.4491 261.484 41.4495H253.5C253.086 41.4492 252.75 41.1131 252.75 40.6995C252.75 40.2857 253.086 39.9498 253.5 39.9495H261.484C262.916 39.9491 264.077 38.7875 264.077 37.3557C264.077 35.8885 262.86 34.7129 261.394 34.7639L254.387 35.009C252.637 35.0704 251.25 36.5067 251.25 38.2571V41.0637C251.25 41.5125 251.55 41.9062 251.982 42.0266L259.701 44.1711C260.1 44.2823 260.333 44.6963 260.223 45.095C260.111 45.4934 259.698 45.727 259.299 45.6165L250.306 43.1174L237.564 39.8459C236.435 39.5566 235.282 40.2267 234.974 41.3508C234.666 42.4757 235.318 43.6403 236.438 43.9661L239.467 44.8459C239.551 44.8703 239.638 44.8832 239.726 44.8879C240.025 44.9042 240.329 44.9557 240.629 45.0452L258.179 50.2815L258.209 50.2903C258.212 50.2914 258.213 50.2951 258.213 50.2981L257.792 51.7249C257.791 51.7277 257.788 51.7296 257.785 51.7288L257.693 51.7024L239.558 46.4338C239.451 46.4029 239.339 46.3882 239.229 46.4016C238.34 46.51 237.551 47.1149 237.25 48.0168C236.82 49.3082 237.554 50.6979 238.863 51.0706L255.857 55.9045C256.267 56.0211 256.528 56.4223 256.47 56.844C256.411 57.2654 256.05 57.5793 255.624 57.5793H242.256C240.996 57.5796 239.973 58.6015 239.973 59.8616C239.973 61.1217 240.996 62.1435 242.256 62.1438H290C290.062 62.1438 290.123 62.1518 290.181 62.1663C290.455 62.2354 290.718 62.3937 291.001 62.3938H293C297.694 62.3938 301.5 66.1994 301.5 70.8938C301.5 71.7222 300.828 72.3938 300 72.3938H292.181C291.076 72.3938 290.181 73.2892 290.181 74.3938V74.8938C289.628 74.8938 289.5 71.9461 289.5 71.3938V64.6438C289.5 64.0915 289.052 63.6438 288.5 63.6438H257C255.896 63.6441 255 64.5396 255 65.6438V105.895C255 120.952 267.103 133.181 282.11 133.39C282.312 133.393 282.511 133.332 282.678 133.218L288.753 129.076C289.059 128.868 289.092 128.842 289.402 128.641C289.402 128.103 289.291 125.894 288.753 125.894H288C282.109 125.894 278 121.118 278 115.227C278 114.491 278.597 113.894 279.333 113.894H287C287.552 113.894 289 113.394 289 111.394L290 89.3938C290 88.8416 290.45 88.3952 291.002 88.3772C307.171 87.853 320.176 74.6906 320.387 58.3967L320.452 53.2502C320.456 52.9638 320.689 52.733 320.976 52.7327H321.281C321.402 52.7329 321.5 52.8307 321.5 52.9514C321.5 55.129 323.266 56.8947 325.443 56.8948H357.565C358.575 56.8948 359.154 58.5183 358.623 59.3772C357.911 60.5298 357.5 61.888 357.5 63.3411C357.5 67.5122 354.118 70.8937 349.947 70.8938H335C329.753 70.8939 325.5 75.1472 325.5 80.3938C325.5 83.3663 326.868 85.6942 329.006 87.1575L327.188 90.3743C327.062 90.2589 326.897 90.1806 326.701 90.1643C325.237 90.0425 323.773 90.4787 322.31 92.4524C322.11 92.7218 321.798 92.8928 321.463 92.8918L306.655 92.8459C306.102 92.8443 305.653 93.2927 305.652 93.8459V97.8938C305.652 98.446 306.1 98.8938 306.652 98.8938H322.373L321.242 100.894H308.647C307.543 100.894 306.648 101.789 306.647 102.894V104.894L304.082 111.007C303.806 111.666 304.289 112.394 305.004 112.394H306V115.21C306 116.867 307.343 118.21 309 118.21H311.453L308.447 123.527C308.432 123.528 308.416 123.528 308.4 123.531C301.786 124.483 295.446 126.933 289.88 130.729L274.033 141.535H270.872C270.936 141.327 271.068 141.137 271.263 141.004L277.397 136.82C278.171 136.292 277.864 135.045 276.944 134.869C270.761 133.691 265.261 130.583 261.098 126.195C260.057 125.098 258.644 124.395 257.132 124.395H208C204.411 124.395 201.5 121.484 201.5 117.895C201.5 114.305 204.41 111.395 208 111.395C208.414 111.395 208.75 111.059 208.75 110.645V77.5032C208.75 75.9223 209.742 74.5106 211.229 73.9749L224.898 68.8625C225.42 68.6674 225.281 67.8948 224.724 67.8948H223L222.846 67.8909C221.312 67.8131 220.082 66.5827 220.004 65.0491L220 64.8948V63.8948C220 63.0486 219.423 61.8948 218.577 61.8948H218L217.846 61.8909C216.312 61.8131 215.082 60.5827 215.004 59.0491L215 58.8948V57.8948C215 57.3914 215.125 56.9175 215.345 56.5012C215.679 55.8683 215.679 54.9213 215.345 54.2883C215.148 53.9149 215.027 53.4951 215.004 53.0491L215 52.8948V51.8948C215 51.3914 215.125 50.9175 215.345 50.5012C215.679 49.8683 215.679 48.9213 215.345 48.2883C215.148 47.9149 215.027 47.4951 215.004 47.0491L215 46.8948V45.8948C215 45.5136 214.516 45.1341 214.191 45.3342L206.66 49.9875C206.3 50.2098 205.826 50.0885 205.615 49.7209C205.415 49.3703 205.529 48.9235 205.872 48.7112L217.491 41.5364C218.883 40.7412 219.386 38.9808 218.627 37.5696C217.844 36.1154 216.02 35.5848 214.579 36.3928L198.442 45.4456C197.961 45.7155 197.367 45.3675 197.367 44.8157C197.367 44.5555 197.508 44.3157 197.734 44.1877L213.846 35.0852C216.018 33.867 218.766 34.6662 219.947 36.8586C221.092 38.9862 220.333 41.6392 218.235 42.8381C218.209 42.8544 218.221 42.8948 218.252 42.8948H231C232.657 42.8948 234 44.2381 234 45.8948V46.8948C234 47.3983 233.876 47.8728 233.656 48.2893C233.323 48.922 233.323 49.8676 233.656 50.5002C233.876 50.9168 234 51.3912 234 51.8948V52.8948C234 53.3983 233.876 53.8728 233.656 54.2893C233.323 54.922 233.323 55.8676 233.656 56.5002C233.876 56.9168 234 57.3912 234 57.8948V58.8948C234 58.9472 233.999 58.9993 233.996 59.051C233.953 59.8824 234.454 61.1416 235.06 61.7131C235.639 62.2599 236 63.0353 236 63.8948V64.8948C236 66.5513 234.657 67.8948 233 67.8948H231.852C231.732 67.8948 231.612 67.916 231.5 67.9583L211.738 75.386C210.846 75.7074 210.25 76.5547 210.25 77.5032V94.8948C210.25 95.447 210.698 95.8947 211.25 95.8948H248C250.761 95.8948 253 93.656 253 90.8948V67.6438C253 65.4349 251.209 63.6438 249 63.6438H242.256C240.167 63.6435 238.473 61.9501 238.473 59.8616C238.473 57.773 240.167 56.0796 242.256 56.0793H243.82C244.981 56.0793 250.306 55.9044 244.095 54.1174L238.453 52.5129C236.322 51.9064 235.127 49.6445 235.827 47.5422C235.949 47.1764 236.12 46.8394 236.331 46.5383C236.601 46.1515 236.473 45.5384 236.02 45.4065C234.113 44.8523 233.003 42.8705 233.526 40.9553C234.051 39.0406 236.016 37.9003 237.938 38.3938L248.501 41.1057C249.133 41.268 249.75 40.7899 249.75 40.137V38.2571C249.75 35.6988 251.777 33.5997 254.334 33.51L261.342 33.2649ZM327.832 117.928C328.396 116.996 329.602 116.687 330.545 117.233L353.831 130.714C354.82 131.287 355.123 132.572 354.347 133.411C353.685 134.127 352.861 134.889 351.883 135.646C349.662 137.363 346.72 138.996 343.257 139.963C336.866 141.748 328.615 141.292 319.698 134.738C318.89 134.143 318.693 133.026 319.213 132.167L326.2 120.622C326.236 120.58 326.271 120.535 326.3 120.486L326.839 119.568L327.832 117.928ZM316.694 117.482L307.736 132.927C307.519 132.636 307.283 132.352 307.024 132.078L306.31 131.323L314.341 117.126L316.694 117.482ZM322.523 118.362C322.772 118.399 322.998 118.529 323.155 118.726L324.212 120.047L322.29 123.222C322.142 123.132 321.966 123.079 321.771 123.079H315.76L318.82 117.802L322.523 118.362ZM361.5 88.8938C368 88.8939 372 94.371 372 99.8938C372 105.417 368.5 110.894 362 110.894H348.5C342.924 110.894 338.528 113.893 337.043 118.684L329.85 114.52C329.71 114.439 329.564 114.379 329.416 114.335C329.343 114.243 329.252 114.16 329.142 114.095L325.223 111.789C325.137 111.739 325.058 111.676 324.991 111.603L324.968 111.576C324.446 111.003 323.876 110.52 323.274 110.122L335.586 88.8938H361.5ZM322.268 111.858C322.7 112.153 323.111 112.507 323.488 112.922L323.706 113.161L323.707 113.163C323.768 113.23 323.838 113.287 323.914 113.335L326.25 114.795C326.675 115.061 326.831 115.594 326.635 116.042L325.974 117.136C325.578 117.608 324.831 117.619 324.43 117.117L324.228 116.865C324.07 116.669 323.845 116.539 323.596 116.501L319.898 115.943L322.268 111.858ZM317.961 110.727C318.794 110.659 319.642 110.743 320.459 110.99L317.773 115.621L315.395 115.263L317.961 110.727ZM218.5 97.8948C218.5 96.103 213.57 96.1245 211.026 96.5071C210.568 96.5762 210.25 96.9809 210.25 97.4446V107.395C210.25 109.604 212.041 111.395 214.25 111.395H236.312C238.625 111.395 240.5 109.52 240.5 107.207C240.5 104.895 238.625 103.02 236.312 103.02H222.845C220.446 103.02 218.5 101.394 218.5 97.8948ZM340.528 73.3928C341.299 73.3929 341.78 74.2282 341.394 74.8948L321.485 109.221C320.708 108.938 319.903 108.774 319.096 108.721L338.794 73.9006C338.971 73.587 339.304 73.3928 339.664 73.3928H340.528ZM223 62.3948C222.172 62.3949 221.5 63.0666 221.5 63.8948V64.8948C221.5 65.7228 222.172 66.3947 223 66.3948H233C233.828 66.3948 234.5 65.7228 234.5 64.8948V63.8948C234.5 63.0665 233.828 62.3948 233 62.3948H223ZM218 56.3948C217.172 56.3949 216.5 57.0666 216.5 57.8948V58.8948C216.5 59.7228 217.172 60.3947 218 60.3948H231C231.828 60.3948 232.5 59.7228 232.5 58.8948V57.8948C232.5 57.0665 231.828 56.3948 231 56.3948H218ZM218 50.3948C217.172 50.3949 216.5 51.0666 216.5 51.8948V52.8948C216.5 53.7228 217.172 54.3947 218 54.3948H231C231.828 54.3948 232.5 53.7228 232.5 52.8948V51.8948C232.5 51.0665 231.828 50.3948 231 50.3948H218ZM324.888 45.6497C328.132 43.9089 332.06 44.0351 335.187 45.9807L337.088 47.1643C339.701 48.7904 343.033 48.7033 345.559 46.9436C349.185 44.416 353.937 44.1084 357.811 46.2776C358.145 46.4651 358.486 46.6558 358.827 46.8489C361.967 48.6265 365.847 48.6241 368.86 46.7083L369.169 46.512C372.732 44.2464 377.26 44.1553 380.911 46.2766L381.104 46.3889C384.687 48.4703 389.178 48.1533 392.433 45.5901C392.662 45.409 393 45.5728 393 45.8655V46.7278C393 46.9748 392.882 47.2083 392.677 47.3459C388.995 49.8147 384.196 49.9955 380.318 47.7424L380.125 47.6301C376.98 45.8025 373.078 45.8805 370.009 47.8323L369.7 48.0286C366.168 50.2745 361.667 50.2551 358.057 48.2112C357.718 48.0194 357.379 47.8293 357.046 47.6428C353.713 45.7764 349.604 46.031 346.454 48.2268C343.415 50.3447 339.406 50.4494 336.261 48.4924L334.359 47.3098C331.709 45.6603 328.379 45.5528 325.628 47.0286L322.078 49.4661C321.41 49.9247 320.501 49.4388 320.512 48.6282L320.513 48.5803C320.517 48.2166 320.72 47.8841 321.04 47.7122L324.888 45.6497ZM218 44.3948C217.172 44.3949 216.5 45.0666 216.5 45.8948V46.8948C216.5 47.7228 217.172 48.3947 218 48.3948H231C231.828 48.3948 232.5 47.7228 232.5 46.8948V45.8948C232.5 45.0665 231.828 44.3948 231 44.3948H218ZM324.888 40.8079C328.132 39.0671 332.06 39.1933 335.187 41.1389L337.088 42.3225C339.701 43.9486 343.033 43.8615 345.559 42.1018C349.185 39.5742 353.937 39.2666 357.811 41.4358C358.145 41.6233 358.486 41.814 358.827 42.0071C361.967 43.7847 365.847 43.7823 368.86 41.8665L369.169 41.6702C372.732 39.4046 377.26 39.3136 380.911 41.4348L381.104 41.5471C384.687 43.6285 389.178 43.3115 392.433 40.7483C392.662 40.5672 393 40.7311 393 41.0237V41.886C393 42.133 392.882 42.3665 392.677 42.5042C388.995 44.9729 384.196 45.1537 380.318 42.9006L380.125 42.7883C376.98 40.9607 373.078 41.0387 370.009 42.9905L369.7 43.1868C366.168 45.4327 361.667 45.4133 358.057 43.3694C357.718 43.1776 357.379 42.9875 357.046 42.801C353.713 40.9346 349.604 41.1893 346.454 43.385C343.415 45.5029 339.406 45.6076 336.261 43.6506L334.359 42.468C331.709 40.8185 328.379 40.711 325.628 42.1868L321.729 44.2766C321.204 44.5578 320.57 44.1722 320.578 43.5764C320.582 43.2921 320.74 43.0322 320.99 42.8977L324.888 40.8079ZM324.888 36.1125C328.132 34.3718 332.06 34.498 335.187 36.4436L337.088 37.6272C339.701 39.2533 343.033 39.1662 345.559 37.4065C349.185 34.8789 353.937 34.5713 357.811 36.7405C358.145 36.928 358.486 37.1187 358.827 37.3118C361.967 39.0894 365.847 39.087 368.86 37.1711L369.169 36.9749C372.732 34.7093 377.26 34.6182 380.911 36.7395L381.104 36.8518C384.687 38.9332 389.178 38.6162 392.433 36.053C392.662 35.8719 393 36.0357 393 36.3284V37.1907C393 37.4377 392.882 37.6712 392.677 37.8088C388.995 40.2776 384.196 40.4584 380.318 38.2053L380.125 38.093C376.98 36.2654 373.078 36.3434 370.009 38.2952L369.7 38.4915C366.168 40.7374 361.667 40.718 358.057 38.6741C357.718 38.4823 357.379 38.2922 357.046 38.1057C353.713 36.2392 349.604 36.4939 346.454 38.6897C343.415 40.8076 339.406 40.9123 336.261 38.9553L334.359 37.7727C331.709 36.1232 328.379 36.0157 325.628 37.4915L321.79 39.5491C321.265 39.8302 320.631 39.4446 320.639 38.8489C320.643 38.5645 320.8 38.3047 321.051 38.1702L324.888 36.1125ZM392 10.8938C392.552 10.8939 393 11.3416 393 11.8938V30.9583C393 31.2657 392.859 31.557 392.615 31.7444C392.377 31.9276 392.146 32.1022 391.921 32.2698C388.407 34.8895 383.552 35.0649 379.777 32.8362L379.557 32.7053C378.674 32.1842 377.734 31.8077 376.768 31.5735C376.352 31.4727 376.022 31.1455 375.953 30.7239L375.295 26.6956C375.241 26.367 375.537 26.0378 375.858 26.1233L376.743 26.3586C377.276 26.4998 377.824 26.1822 377.967 25.6497C378.108 25.1163 377.79 24.5684 377.257 24.426L375.067 23.844C375.008 23.8283 374.949 23.8185 374.89 23.8137C374.246 23.7616 373.368 24.0645 372.743 23.9036C372.293 23.7878 371.813 23.7615 371.325 23.8411C370.734 23.9377 370.203 24.1791 369.762 24.5227C369.442 24.7718 368.846 24.6956 368.454 24.5911L366.264 24.009C365.73 23.8673 365.182 24.1845 365.04 24.718C364.899 25.2511 365.217 25.7997 365.75 25.9417L367.939 26.5237C368.185 26.5889 368.442 26.8226 368.43 27.0764C368.417 27.3173 368.43 27.5635 368.471 27.8108L369.173 32.1086C369.225 32.4294 369.071 32.7457 368.798 32.9221L368.49 33.1204C365.28 35.1944 361.143 35.1874 357.83 33.2815C357.498 33.0905 357.167 32.9007 356.841 32.7151C354.145 31.1808 350.963 30.976 348.131 32.0042C347.493 32.2355 346.759 31.8674 346.648 31.1975L345.728 25.6184C345.674 25.2899 345.969 24.9606 346.291 25.0461L347.176 25.2815C347.709 25.4228 348.257 25.1051 348.399 24.5725C348.541 24.0391 348.223 23.4911 347.689 23.3489L345.5 22.7668C345.441 22.7511 345.381 22.7413 345.322 22.7366C344.679 22.6846 343.801 22.9874 343.176 22.8264C342.726 22.7106 342.245 22.6843 341.758 22.7639C341.167 22.8606 340.636 23.102 340.194 23.4456C339.874 23.6946 339.279 23.6184 338.887 23.5139L336.696 22.9319C336.163 22.7903 335.615 23.1074 335.473 23.6409C335.332 24.1739 335.65 24.7225 336.183 24.8645L338.372 25.4465C338.618 25.5119 338.875 25.7454 338.862 25.9993C338.85 26.2401 338.863 26.4864 338.903 26.7336L339.718 33.5403C339.794 34.1817 339.249 34.7279 338.626 34.5569C337.854 34.3446 337.105 34.0178 336.405 33.5754L334.456 32.343C331.659 30.5741 328.136 30.414 325.189 31.9211L322.175 33.4622C321.504 33.8048 320.71 33.3117 320.72 32.5588L320.987 11.8811C320.994 11.334 321.44 10.8939 321.987 10.8938H392ZM380.483 27.2073C380.381 26.6649 379.858 26.3077 379.315 26.4094C378.773 26.5117 378.416 27.0349 378.518 27.5774L378.929 29.762C379.032 30.3034 379.554 30.6603 380.096 30.5588C380.638 30.4566 380.995 29.9329 380.894 29.3909L380.483 27.2073ZM350.916 26.1301C350.814 25.5877 350.291 25.2304 349.748 25.3323C349.206 25.4347 348.848 25.9578 348.95 26.5002L349.361 28.6848C349.464 29.2262 349.987 29.583 350.528 29.4817C351.07 29.3795 351.427 28.8559 351.326 28.3137L350.916 26.1301ZM364.28 20.719C364.178 20.1767 363.655 19.8193 363.112 19.9211C362.57 20.0236 362.213 20.5466 362.315 21.0891L362.727 23.2727C362.829 23.8145 363.352 24.1734 363.895 24.0715C364.436 23.969 364.792 23.4453 364.691 22.9036L364.28 20.719ZM374.18 19.8713C373.872 17.987 372.094 16.7092 370.21 17.0168C368.326 17.3251 367.048 19.1023 367.355 20.9866C367.664 22.8699 369.441 24.1484 371.325 23.8411C373.209 23.533 374.487 21.7552 374.18 19.8713ZM334.713 19.6418C334.611 19.0994 334.087 18.742 333.545 18.844C333.003 18.9466 332.646 19.4696 332.748 20.012L333.159 22.1956C333.262 22.7373 333.785 23.0961 334.327 22.9944C334.869 22.892 335.225 22.3683 335.124 21.8264L334.713 19.6418ZM344.612 18.7942C344.304 16.9098 342.527 15.6319 340.643 15.9397C338.759 16.2481 337.48 18.0252 337.788 19.9094C338.097 21.7927 339.874 23.0711 341.758 22.7639C343.642 22.456 344.919 20.6781 344.612 18.7942Z" fill="url(#paint1_linear_645_16788)"/>
</g>
<path d="M319.5 57.3938L319.5 10.8938L321.5 10.8938L321.5 57.3938C321.5 74.7908 307.397 88.8938 290 88.8938L290 86.8938C306.292 86.8938 319.5 73.6862 319.5 57.3938Z" fill="#FFD477"/>
<g filter="url(#filter1_g_645_16788)">
<path d="M277 85.8938C278.105 85.8938 279.029 84.9801 278.718 83.9202C277.866 81.0152 275.181 78.8938 272 78.8938C268.819 78.8938 266.134 81.0152 265.282 83.9202C264.971 84.9801 265.895 85.8938 267 85.8938H277ZM281 86.8938C281 87.4461 280.552 87.8938 280 87.8938H264C263.448 87.8938 263 87.4461 263 86.8938V85.8938C263 80.9232 267.029 76.8938 272 76.8938C276.971 76.8938 281 80.9232 281 85.8938V86.8938Z" fill="#FFD477"/>
</g>
<g filter="url(#filter2_g_645_16788)">
<path d="M303 40.8938C307.418 40.8938 311 37.3121 311 32.8938C311 32.3415 310.552 31.8938 310 31.8938H296C295.448 31.8938 295 32.3415 295 32.8938C295 37.3121 298.582 40.8938 303 40.8938ZM303 38.8938C300.44 38.8938 298.256 37.2901 297.394 35.0326C297.174 34.4548 297.648 33.8938 298.267 33.8938H307.733C308.352 33.8938 308.826 34.4548 308.606 35.0326C307.744 37.2901 305.56 38.8938 303 38.8938Z" fill="url(#paint2_linear_645_16788)"/>
</g>
<g filter="url(#filter3_g_645_16788)">
<path d="M267.25 35.9329C267.25 33.3533 269.341 31.2622 271.921 31.262H289.753C290.167 31.262 290.503 31.5978 290.503 32.012C290.503 32.4262 290.167 32.762 289.753 32.762H271.921C270.17 32.7622 268.75 34.1817 268.75 35.9329C268.75 37.6842 270.17 39.1045 271.921 39.1047H279.811C280.38 39.1047 280.742 39.7141 280.47 40.2141C279.622 41.7688 278.649 44.254 278.465 46.637C278.281 49.0145 278.88 51.1003 280.93 52.2385C281.292 52.4396 281.423 52.8959 281.222 53.2581C281.021 53.6201 280.564 53.7502 280.202 53.5491C277.422 52.005 276.763 49.1858 276.969 46.5217C277.047 45.5087 277.25 44.4907 277.523 43.5259C277.918 42.1234 276.94 40.6047 275.483 40.6047H271.921C269.341 40.6045 267.25 38.5126 267.25 35.9329Z" fill="url(#paint3_linear_645_16788)"/>
</g>
<path d="M313.543 114.983C312.897 114.886 312.516 114.2 312.882 113.659C315.212 110.21 320.417 109.544 323.488 112.922L323.706 113.162C323.767 113.229 323.838 113.288 323.915 113.336L326.25 114.795C326.713 115.084 326.858 115.69 326.578 116.157L326.068 117.007C325.71 117.605 324.865 117.662 324.43 117.117L324.228 116.865C324.071 116.668 323.845 116.538 323.596 116.501L313.543 114.983Z" fill="#FFD477"/>
<path d="M305.571 133.453C309.435 137.541 307.308 144.282 301.799 145.413L301.755 145.423L301.712 145.436L299.287 146.163C298.646 146.355 298 145.875 298 145.205V144.076C298 143.699 298.305 143.394 298.682 143.393C298.923 143.393 299.147 143.265 299.269 143.058L304.901 133.528C305.044 133.286 305.379 133.249 305.571 133.453Z" fill="#FFD477"/>
<g filter="url(#filter4_g_645_16788)">
<path d="M215 51.8942V52.8942C215 54.1824 215.814 55.2778 216.954 55.7028C216.368 56.2502 216 57.0289 216 57.8942V58.8942C216 59.2226 216.054 59.5388 216.152 59.8346L209.953 58.0865C209.078 57.8398 208.959 56.6483 209.768 56.234L213.941 54.0992C214.178 53.9778 214.357 53.7663 214.438 53.5123L215.005 51.7291C215.002 51.7838 215 51.8388 215 51.8942ZM215.872 49.0065C216.015 49.1508 216.172 49.2812 216.342 49.3942C215.989 49.629 215.687 49.9365 215.461 50.2955L215.872 49.0065ZM209.487 8.609C209.622 8.07366 210.185 7.7774 210.713 7.94006L245.998 18.816C246.525 18.9787 246.824 19.5405 246.634 20.0592C244.102 26.9865 237.911 31.6324 230.953 32.4703C230.944 32.4714 230.943 32.4837 230.952 32.486C230.96 32.4884 230.959 32.502 230.95 32.5026L230.105 32.5533C229.918 32.5674 229.73 32.579 229.543 32.5875L228.637 32.6432C226.148 32.7948 224.011 34.471 223.271 36.8531L221.396 42.8942H218C217.937 42.8942 217.875 42.8974 217.814 42.901L217.886 42.6725C219.353 41.5314 220.345 39.4634 219.5 37.8932C219.481 37.858 219.46 37.824 219.44 37.7897L219.984 36.0826C220.746 33.6875 219.93 31.0986 217.996 29.5651C211.019 25.2719 207.411 16.8248 209.487 8.609ZM211.849 9.85998C211.29 9.68755 210.699 10.0305 210.61 10.609C209.9 15.2054 211.059 19.7729 213.612 23.4117C214.813 25.1232 216.89 25.8941 218.981 25.8942H240.77C241.036 25.8942 241.293 25.7895 241.476 25.5963C242.719 24.2855 243.773 22.7687 244.579 21.0778C244.83 20.5495 244.536 19.9349 243.977 19.7623L211.849 9.85998Z" fill="url(#paint4_linear_645_16788)"/>
</g>
<g filter="url(#filter5_g_645_16788)">
<path fill-rule="evenodd" clip-rule="evenodd" d="M277.005 0.223034C277.544 0.105384 278.08 0.447839 278.17 0.992793C279.31 7.91938 276.549 14.6744 271.41 18.8868C271.398 18.8965 271.408 18.9157 271.422 18.9122C271.438 18.9085 271.447 18.9294 271.434 18.9383L270.857 19.3221C270.24 19.791 269.591 20.224 268.913 20.618L268.5 20.8945C266.743 21.7732 265.822 23.7459 266.277 25.657L270.826 44.7646C270.886 45.0162 271.041 45.2348 271.259 45.3745L274.853 47.6821C275.601 48.1621 275.398 49.3059 274.531 49.4996L266.028 51.399C265.158 51.5934 264.488 50.6384 264.966 49.8863L267.272 46.2621C267.418 46.0322 267.464 45.7526 267.399 45.488L262.712 26.3084C262.294 24.5977 260.761 23.3945 259 23.3946L258.647 23.3556C250.161 23.368 242.486 17.6976 240.189 9.27339C240.044 8.74055 240.389 8.20626 240.928 8.08861L277.005 0.223034ZM242.861 9.20193C242.289 9.32664 241.944 9.91504 242.151 10.4628C242.912 12.4839 244.022 14.3014 245.394 15.8605C245.578 16.0698 245.845 16.1851 246.124 16.1851L269.519 16.1855C271.172 16.1855 272.795 15.533 273.741 14.1779C275.99 10.9572 277.164 6.99703 276.88 2.89057C276.84 2.30656 276.281 1.91519 275.709 2.0399L242.861 9.20193Z" fill="url(#paint5_linear_645_16788)"/>
</g>
<g filter="url(#filter6_g_645_16788)">
<path d="M200.409 175.206L214.319 178.248C214.436 178.274 214.418 178.445 214.298 178.445H200.1C200.044 178.445 200 178.401 200 178.346C200.006 177.315 200.105 176.291 200.289 175.285C200.299 175.23 200.354 175.194 200.409 175.206ZM224.292 175.202L238.202 178.244C238.319 178.27 238.3 178.441 238.181 178.441H223.982C223.927 178.441 223.883 178.397 223.883 178.342C223.889 177.311 223.988 176.287 224.172 175.281C224.182 175.226 224.237 175.19 224.292 175.202ZM247.637 175.202L261.547 178.244C261.664 178.27 261.645 178.441 261.525 178.441H247.327C247.272 178.441 247.227 178.397 247.228 178.342C247.234 177.311 247.332 176.287 247.517 175.281C247.527 175.226 247.582 175.19 247.637 175.202ZM201.631 171.312L212.752 176.68C212.859 176.731 212.803 176.893 212.688 176.867L200.622 174.229C200.567 174.217 200.532 174.161 200.546 174.107C200.785 173.168 201.104 172.25 201.496 171.361C201.519 171.31 201.58 171.287 201.631 171.312ZM225.514 171.308L236.635 176.676C236.742 176.727 236.686 176.889 236.57 176.863L224.505 174.225C224.45 174.213 224.415 174.157 224.429 174.103C224.668 173.164 224.987 172.245 225.379 171.357C225.402 171.305 225.463 171.283 225.514 171.308ZM248.858 171.308L259.979 176.676C260.086 176.727 260.031 176.889 259.915 176.863L247.85 174.225C247.795 174.213 247.76 174.157 247.773 174.103C248.013 173.164 248.332 172.245 248.724 171.357C248.746 171.305 248.808 171.283 248.858 171.308ZM203.48 167.955C203.514 167.91 203.579 167.901 203.623 167.937L213.1 175.518C213.192 175.592 213.1 175.737 212.993 175.686L202.064 170.409C202.014 170.385 201.993 170.323 202.019 170.273C202.192 169.944 202.376 169.618 202.571 169.299C202.854 168.836 203.158 168.388 203.48 167.955ZM227.363 167.95C227.397 167.905 227.462 167.897 227.506 167.933L236.982 175.514C237.075 175.588 236.983 175.733 236.876 175.682L225.947 170.405C225.897 170.381 225.876 170.319 225.901 170.27C226.075 169.94 226.259 169.614 226.454 169.295C226.737 168.832 227.041 168.383 227.363 167.95ZM250.708 167.95C250.742 167.905 250.807 167.897 250.851 167.933L260.327 175.514C260.42 175.588 260.328 175.733 260.221 175.682L249.292 170.405C249.241 170.381 249.22 170.319 249.246 170.27C249.419 169.94 249.604 169.614 249.799 169.295C250.082 168.832 250.385 168.383 250.708 167.95ZM225.286 162.679C226.121 163.088 226.926 163.566 227.691 164.107C227.737 164.138 227.747 164.201 227.715 164.246L219.605 175.584C219.535 175.682 219.383 175.594 219.433 175.484L225.152 162.728C225.175 162.677 225.236 162.654 225.286 162.679ZM249.169 162.675C250.004 163.084 250.809 163.562 251.574 164.103C251.619 164.134 251.63 164.196 251.598 164.241L243.488 175.58C243.418 175.678 243.266 175.59 243.315 175.481L249.035 162.724C249.058 162.673 249.119 162.65 249.169 162.675ZM272.514 162.675C273.349 163.084 274.154 163.562 274.919 164.103C274.964 164.134 274.974 164.196 274.942 164.241L266.833 175.58C266.763 175.678 266.611 175.59 266.66 175.481L272.38 162.724C272.403 162.673 272.463 162.65 272.514 162.675ZM206.128 165.121C206.171 165.085 206.235 165.091 206.271 165.135L213.794 174.54C213.868 174.633 213.746 174.755 213.653 174.681L204.249 167.156C204.205 167.121 204.199 167.056 204.235 167.014C204.818 166.335 205.45 165.703 206.128 165.121ZM230.011 165.116C230.054 165.08 230.118 165.086 230.153 165.13L237.677 174.535C237.751 174.628 237.629 174.75 237.536 174.676L228.132 167.152C228.088 167.117 228.082 167.053 228.118 167.01C228.7 166.331 229.333 165.698 230.011 165.116ZM253.355 165.116C253.398 165.08 253.463 165.086 253.498 165.13L261.021 174.535C261.096 174.628 260.974 174.75 260.881 174.676L251.477 167.152C251.433 167.117 251.426 167.053 251.463 167.01C252.045 166.331 252.678 165.698 253.355 165.116ZM209.387 162.906C209.437 162.88 209.499 162.9 209.523 162.951L214.799 173.878C214.85 173.985 214.704 174.076 214.63 173.983L207.05 164.509C207.015 164.465 207.022 164.4 207.067 164.366C207.798 163.822 208.574 163.334 209.387 162.906ZM233.27 162.902C233.319 162.876 233.382 162.897 233.406 162.947L238.682 173.874C238.733 173.981 238.587 174.072 238.513 173.98L230.933 164.504C230.897 164.46 230.905 164.396 230.95 164.362C231.681 163.818 232.457 163.33 233.27 162.902ZM256.614 162.902C256.664 162.876 256.726 162.897 256.751 162.947L262.026 173.874C262.078 173.981 261.932 174.072 261.857 173.98L254.277 164.504C254.242 164.46 254.25 164.396 254.295 164.362C255.026 163.818 255.801 163.33 256.614 162.902ZM213.106 161.465C213.161 161.451 213.216 161.484 213.229 161.539L215.913 173.434C215.939 173.55 215.777 173.606 215.726 173.499L210.426 162.518C210.401 162.467 210.423 162.407 210.475 162.384C211.328 162.007 212.209 161.7 213.106 161.465ZM236.989 161.46C237.044 161.446 237.099 161.48 237.111 161.535L239.796 173.429C239.822 173.545 239.66 173.602 239.608 173.495L234.309 162.514C234.284 162.463 234.306 162.402 234.357 162.379C235.211 162.002 236.091 161.695 236.989 161.46ZM260.334 161.46C260.388 161.446 260.444 161.48 260.456 161.535L263.141 173.429C263.167 173.545 263.005 173.602 262.953 173.495L257.653 162.514C257.629 162.463 257.651 162.402 257.702 162.379C258.556 162.002 259.436 161.695 260.334 161.46ZM216.955 160.898C217.011 160.897 217.059 160.942 217.059 160.998V173.065C217.058 173.184 216.887 173.202 216.86 173.086L214.204 161.317C214.192 161.263 214.227 161.208 214.282 161.197C215.163 161.03 216.056 160.929 216.955 160.898ZM218.839 160.934C219.511 160.983 220.177 161.073 220.835 161.198C220.89 161.209 220.926 161.263 220.913 161.318L218.256 173.084C218.229 173.2 218.059 173.181 218.059 173.062V161C218.059 160.944 218.105 160.898 218.161 160.899C218.387 160.907 218.613 160.917 218.839 160.934ZM240.838 160.894C240.894 160.892 240.941 160.937 240.941 160.993V173.06C240.941 173.179 240.769 173.198 240.743 173.082L238.087 161.314C238.075 161.259 238.11 161.204 238.165 161.193C239.046 161.026 239.939 160.925 240.838 160.894ZM264.183 160.894C264.239 160.892 264.286 160.937 264.286 160.993V173.06C264.286 173.179 264.114 173.198 264.088 173.082L261.432 161.314C261.419 161.259 261.454 161.204 261.51 161.193C262.39 161.026 263.284 160.925 264.183 160.894ZM242.722 160.93C243.394 160.979 244.06 161.069 244.718 161.194C244.773 161.205 244.808 161.26 244.796 161.315L242.139 173.08C242.112 173.196 241.941 173.177 241.941 173.058V160.995C241.942 160.939 241.988 160.894 242.044 160.896C242.27 160.903 242.496 160.913 242.722 160.93ZM266.066 160.93C266.739 160.979 267.405 161.069 268.062 161.194C268.118 161.205 268.153 161.26 268.141 161.315L265.483 173.08C265.457 173.196 265.286 173.177 265.286 173.058V160.995C265.286 160.939 265.333 160.894 265.389 160.896C265.614 160.903 265.841 160.913 266.066 160.93ZM222.012 161.464C222.752 161.658 223.478 161.9 224.186 162.189C224.238 162.21 224.262 162.27 224.239 162.321L219.557 172.768C219.507 172.878 219.341 172.822 219.367 172.704L221.889 161.538C221.901 161.483 221.957 161.45 222.012 161.464ZM245.895 161.459C246.635 161.653 247.36 161.896 248.068 162.185C248.12 162.206 248.145 162.266 248.122 162.317L243.439 172.764C243.39 172.874 243.223 172.818 243.25 172.7L245.771 161.534C245.784 161.479 245.84 161.445 245.895 161.459ZM269.239 161.459C269.979 161.653 270.705 161.896 271.413 162.185C271.465 162.206 271.49 162.266 271.467 162.317L266.784 172.764C266.735 172.874 266.568 172.818 266.595 172.7L269.116 161.534C269.129 161.479 269.185 161.445 269.239 161.459Z" fill="url(#paint6_linear_645_16788)"/>
</g>
<defs>
<filter id="filter0_g_645_16788" x="197.167" y="10.6938" width="196.033" height="167.9" filterUnits="userSpaceOnUse" color-interpolation-filters="sRGB">
<feFlood flood-opacity="0" result="BackgroundImageFix"/>
<feBlend mode="normal" in="SourceGraphic" in2="BackgroundImageFix" result="shape"/>
<feTurbulence type="fractalNoise" baseFrequency="0.25 0.25" numOctaves="3" seed="5120" />
<feDisplacementMap in="shape" scale="0.40000000596046448" xChannelSelector="R" yChannelSelector="G" result="displacedImage" width="100%" height="100%" />
<feMerge result="effect1_texture_645_16788">
<feMergeNode in="displacedImage"/>
</feMerge>
</filter>
<filter id="filter1_g_645_16788" x="262.8" y="76.6938" width="18.4" height="11.4" filterUnits="userSpaceOnUse" color-interpolation-filters="sRGB">
<feFlood flood-opacity="0" result="BackgroundImageFix"/>
<feBlend mode="normal" in="SourceGraphic" in2="BackgroundImageFix" result="shape"/>
<feTurbulence type="fractalNoise" baseFrequency="0.25 0.25" numOctaves="3" seed="5120" />
<feDisplacementMap in="shape" scale="0.40000000596046448" xChannelSelector="R" yChannelSelector="G" result="displacedImage" width="100%" height="100%" />
<feMerge result="effect1_texture_645_16788">
<feMergeNode in="displacedImage"/>
</feMerge>
</filter>
<filter id="filter2_g_645_16788" x="294.8" y="31.6938" width="16.4" height="9.4" filterUnits="userSpaceOnUse" color-interpolation-filters="sRGB">
<feFlood flood-opacity="0" result="BackgroundImageFix"/>
<feBlend mode="normal" in="SourceGraphic" in2="BackgroundImageFix" result="shape"/>
<feTurbulence type="fractalNoise" baseFrequency="0.25 0.25" numOctaves="3" seed="5120" />
<feDisplacementMap in="shape" scale="0.40000000596046448" xChannelSelector="R" yChannelSelector="G" result="displacedImage" width="100%" height="100%" />
<feMerge result="effect1_texture_645_16788">
<feMergeNode in="displacedImage"/>
</feMerge>
</filter>
<filter id="filter3_g_645_16788" x="267.15" y="31.162" width="23.4529" height="22.5816" filterUnits="userSpaceOnUse" color-interpolation-filters="sRGB">
<feFlood flood-opacity="0" result="BackgroundImageFix"/>
<feBlend mode="normal" in="SourceGraphic" in2="BackgroundImageFix" result="shape"/>
<feTurbulence type="fractalNoise" baseFrequency="0.25 0.25" numOctaves="3" seed="5120" />
<feDisplacementMap in="shape" scale="0.20000000298023224" xChannelSelector="R" yChannelSelector="G" result="displacedImage" width="100%" height="100%" />
<feMerge result="effect1_texture_645_16788">
<feMergeNode in="displacedImage"/>
</feMerge>
</filter>
<filter id="filter4_g_645_16788" x="208.703" y="7.69551" width="38.1881" height="52.339" filterUnits="userSpaceOnUse" color-interpolation-filters="sRGB">
<feFlood flood-opacity="0" result="BackgroundImageFix"/>
<feBlend mode="normal" in="SourceGraphic" in2="BackgroundImageFix" result="shape"/>
<feTurbulence type="fractalNoise" baseFrequency="0.25 0.25" numOctaves="3" seed="5120" />
<feDisplacementMap in="shape" scale="0.40000000596046448" xChannelSelector="R" yChannelSelector="G" result="displacedImage" width="100%" height="100%" />
<feMerge result="effect1_texture_645_16788">
<feMergeNode in="displacedImage"/>
</feMerge>
</filter>
<filter id="filter5_g_645_16788" x="239.956" y="-4.88311e-05" width="38.6686" height="51.6246" filterUnits="userSpaceOnUse" color-interpolation-filters="sRGB">
<feFlood flood-opacity="0" result="BackgroundImageFix"/>
<feBlend mode="normal" in="SourceGraphic" in2="BackgroundImageFix" result="shape"/>
<feTurbulence type="fractalNoise" baseFrequency="0.25 0.25" numOctaves="3" seed="5120" />
<feDisplacementMap in="shape" scale="0.40000000596046448" xChannelSelector="R" yChannelSelector="G" result="displacedImage" width="100%" height="100%" />
<feMerge result="effect1_texture_645_16788">
<feMergeNode in="displacedImage"/>
</feMerge>
</filter>
<filter id="filter6_g_645_16788" x="199.9" y="160.794" width="75.1609" height="17.7518" filterUnits="userSpaceOnUse" color-interpolation-filters="sRGB">
<feFlood flood-opacity="0" result="BackgroundImageFix"/>
<feBlend mode="normal" in="SourceGraphic" in2="BackgroundImageFix" result="shape"/>
<feTurbulence type="fractalNoise" baseFrequency="0.25 0.25" numOctaves="3" seed="5120" />
<feDisplacementMap in="shape" scale="0.20000000298023224" xChannelSelector="R" yChannelSelector="G" result="displacedImage" width="100%" height="100%" />
<feMerge result="effect1_texture_645_16788">
<feMergeNode in="displacedImage"/>
</feMerge>
</filter>
<linearGradient id="paint0_linear_645_16788" x1="394" y1="104.394" x2="13.5" y2="104.394" gradientUnits="userSpaceOnUse">
<stop offset="0.38309" stop-color="#FFD477"/>
<stop offset="1" stop-color="#EABF61" stop-opacity="0"/>
</linearGradient>
<linearGradient id="paint1_linear_645_16788" x1="393" y1="94.6438" x2="197.367" y2="94.6438" gradientUnits="userSpaceOnUse">
<stop stop-color="#FDD275"/>
<stop offset="1" stop-color="#F2C567"/>
</linearGradient>
<linearGradient id="paint2_linear_645_16788" x1="303" y1="40.8938" x2="303" y2="31.8938" gradientUnits="userSpaceOnUse">
<stop stop-color="#FDD275"/>
<stop offset="1" stop-color="#F2C567"/>
</linearGradient>
<linearGradient id="paint3_linear_645_16788" x1="278.876" y1="31.262" x2="278.876" y2="53.6436" gradientUnits="userSpaceOnUse">
<stop stop-color="#FDD275"/>
<stop offset="1" stop-color="#F2C567"/>
</linearGradient>
<linearGradient id="paint4_linear_645_16788" x1="227.798" y1="7.89551" x2="227.798" y2="59.8346" gradientUnits="userSpaceOnUse">
<stop stop-color="#FDD275"/>
<stop offset="1" stop-color="#F2C567"/>
</linearGradient>
<linearGradient id="paint5_linear_645_16788" x1="259.188" y1="0.0100101" x2="259.188" y2="51.9261" gradientUnits="userSpaceOnUse">
<stop stop-color="#FDD275"/>
<stop offset="1" stop-color="#F2C567"/>
</linearGradient>
<linearGradient id="paint6_linear_645_16788" x1="200" y1="169.669" x2="274.961" y2="169.669" gradientUnits="userSpaceOnUse">
<stop stop-color="#EBBC5D"/>
<stop offset="1" stop-color="#FED477"/>
</linearGradient>
</defs>
</svg>
