<svg width="72" height="72" viewBox="0 0 72 72" fill="none" xmlns="http://www.w3.org/2000/svg">
<g filter="url(#filter0_g_438_54812)">
<path d="M22.9583 41.6646C24.0627 41.6648 24.9583 42.5601 24.9583 43.6646V44.9028C26.7591 46.5289 30.6152 48.8755 36.0238 48.8755C40.6209 48.8755 44.2774 46.6607 46.1673 44.9067V43.6646C46.1673 42.56 47.0627 41.6646 48.1673 41.6646H48.7777C49.8822 41.6646 50.7777 42.56 50.7777 43.6646V44.8062L51.014 45.106C52.3055 46.6359 55.2321 48.569 59.0775 48.8423C59.5854 48.8784 59.9992 49.2882 59.9993 49.7974C59.9993 50.3065 59.5862 50.7229 59.0784 50.686C55.5246 50.4262 52.6194 48.6979 50.7777 46.937V53.5063C51.6623 53.7129 52.3216 54.5051 52.3216 55.4526V58.2632H50.3968V56.3765C50.3967 55.8242 49.9491 55.3765 49.3968 55.3765H47.5482C46.9959 55.3765 46.5482 55.8242 46.5482 56.3765V58.2632H44.6234V55.4526C44.6234 54.5052 45.2828 53.713 46.1673 53.5063V46.6763C43.827 48.5926 40.2857 50.7192 36.0238 50.7192C31.1436 50.7192 27.3366 48.975 24.9583 47.2661V53.5054C25.8425 53.7121 26.5021 54.5045 26.5023 55.4517V58.2632H24.5091V56.3765C24.509 55.8245 24.061 55.3769 23.5091 55.3765H21.6595C21.1075 55.3767 20.6596 55.8244 20.6595 56.3765V58.2632H18.804V55.4526C18.804 54.5051 19.4632 53.712 20.348 53.5054V46.5688C18.6206 48.1195 16.0769 50.0501 12.9222 50.2329C12.4136 50.2624 12.0213 49.8227 12.0482 49.314C12.075 48.8057 12.5097 48.4195 13.0179 48.3931C16.193 48.229 18.9132 46.4212 20.348 45.2007V43.6646C20.348 42.56 21.2434 41.6646 22.348 41.6646H22.9583ZM22.6527 36.1313C23.9259 36.1313 24.9583 37.1638 24.9583 38.437C24.9582 39.7101 23.9258 40.7417 22.6527 40.7417C21.3796 40.7416 20.3481 39.71 20.348 38.437C20.348 37.1639 21.3795 36.1314 22.6527 36.1313ZM48.473 36.1313C49.7461 36.1315 50.7777 37.1639 50.7777 38.437C50.7775 39.71 49.7459 40.7415 48.473 40.7417C47.1999 40.7417 46.1675 39.7101 46.1673 38.437C46.1673 37.1638 47.1998 36.1313 48.473 36.1313Z" fill="#AE996F"/>
</g>
<g filter="url(#filter1_g_438_54812)">
<path d="M47.5273 18.811C48.6317 18.8113 49.5273 19.7066 49.5273 20.811V34.1694C49.5271 34.7214 49.0793 35.1692 48.5273 35.1694H22.6221C22.0699 35.1694 21.6223 34.7215 21.6221 34.1694V20.811C21.6221 19.7065 22.5175 18.811 23.6221 18.811H47.5273ZM44.6621 30.606C44.5758 30.0605 44.064 29.6886 43.5186 29.7749L35.9893 30.9653C35.4441 31.0518 35.0721 31.5636 35.1582 32.1089L35.3027 33.022L44.8066 31.519L44.6621 30.606ZM33.249 22.2378C32.9647 21.7645 32.3504 21.6109 31.877 21.895L26.9736 24.8384C26.5001 25.1226 26.3466 25.7369 26.6309 26.2104L29.5742 31.1147C29.8585 31.5882 30.4728 31.7417 30.9463 31.4575L35.8496 28.5142C36.3231 28.2299 36.4766 27.6156 36.1924 27.1421L33.249 22.2378ZM40.8662 22.6597C39.2722 22.6599 37.9797 23.9524 37.9795 25.5464C37.9795 27.1406 39.2721 28.4329 40.8662 28.4331C42.4605 28.4331 43.7529 27.1407 43.7529 25.5464C43.7527 23.9523 42.4604 22.6597 40.8662 22.6597Z" fill="#AA6E00"/>
</g>
<g filter="url(#filter2_g_438_54812)">
<path d="M19.1105 17.756C19.4856 18.1311 19.6963 18.6398 19.6963 19.1702V35.3096C18.8109 36.1023 18.254 37.2542 18.2539 38.5361C18.2539 38.9831 18.3215 39.4147 18.4473 39.8203H16.6582V15.3037L19.1105 17.756Z" fill="#AE996F"/>
<path d="M54.4658 39.8203H52.5488C52.675 39.4141 52.7432 38.9819 52.7432 38.5342C52.7431 37.3264 52.2478 36.2346 51.4502 35.4492V19.1478C51.4502 18.6173 51.6609 18.1086 52.036 17.7335L54.4658 15.3037V39.8203Z" fill="#AE996F"/>
<path d="M44.3291 37.0938C44.1701 37.5445 44.083 38.0291 44.083 38.5342C44.083 38.9819 44.1502 39.4141 44.2764 39.8203H26.7197C26.8455 39.4146 26.9141 38.9831 26.9141 38.5361C26.914 38.0303 26.8264 37.545 26.667 37.0938H44.3291Z" fill="#AE996F"/>
<path d="M51.7399 15.4223C50.8022 16.3599 49.5304 16.8867 48.2043 16.8867H22.9207C21.5946 16.8867 20.3228 16.3599 19.3851 15.4223L17.9629 14H53.1621L51.7399 15.4223Z" fill="#AE996F"/>
</g>
<g filter="url(#filter3_g_438_54812)">
<path d="M54.4995 58C55.0517 58.0001 55.4995 58.0133 55.4995 58.5C55.4995 58.9867 55.0517 59.2626 54.4995 59.2627L16.8105 59.2627C16.2583 59.2627 15.8105 58.8681 15.8105 58.3813C15.8105 57.8946 16.2583 57.5 16.8105 57.5L54.4995 58Z" fill="#AA6E00"/>
</g>
<defs>
<filter id="filter0_g_438_54812" x="11.8469" y="35.9313" width="48.3521" height="22.5318" filterUnits="userSpaceOnUse" color-interpolation-filters="sRGB">
<feFlood flood-opacity="0" result="BackgroundImageFix"/>
<feBlend mode="normal" in="SourceGraphic" in2="BackgroundImageFix" result="shape"/>
<feTurbulence type="fractalNoise" baseFrequency="0.2222222238779068 0.2222222238779068" numOctaves="3" seed="140" />
<feDisplacementMap in="shape" scale="0.40000000596046448" xChannelSelector="R" yChannelSelector="G" result="displacedImage" width="100%" height="100%" />
<feMerge result="effect1_texture_438_54812">
<feMergeNode in="displacedImage"/>
</feMerge>
</filter>
<filter id="filter1_g_438_54812" x="21.4221" y="18.611" width="28.3053" height="16.7584" filterUnits="userSpaceOnUse" color-interpolation-filters="sRGB">
<feFlood flood-opacity="0" result="BackgroundImageFix"/>
<feBlend mode="normal" in="SourceGraphic" in2="BackgroundImageFix" result="shape"/>
<feTurbulence type="fractalNoise" baseFrequency="0.2222222238779068 0.2222222238779068" numOctaves="3" seed="140" />
<feDisplacementMap in="shape" scale="0.40000000596046448" xChannelSelector="R" yChannelSelector="G" result="displacedImage" width="100%" height="100%" />
<feMerge result="effect1_texture_438_54812">
<feMergeNode in="displacedImage"/>
</feMerge>
</filter>
<filter id="filter2_g_438_54812" x="16.4582" y="13.8" width="38.2076" height="26.2203" filterUnits="userSpaceOnUse" color-interpolation-filters="sRGB">
<feFlood flood-opacity="0" result="BackgroundImageFix"/>
<feBlend mode="normal" in="SourceGraphic" in2="BackgroundImageFix" result="shape"/>
<feTurbulence type="fractalNoise" baseFrequency="0.2222222238779068 0.2222222238779068" numOctaves="3" seed="140" />
<feDisplacementMap in="shape" scale="0.40000000596046448" xChannelSelector="R" yChannelSelector="G" result="displacedImage" width="100%" height="100%" />
<feMerge result="effect1_texture_438_54812">
<feMergeNode in="displacedImage"/>
</feMerge>
</filter>
<filter id="filter3_g_438_54812" x="15.6105" y="57.3" width="40.0895" height="2.1627" filterUnits="userSpaceOnUse" color-interpolation-filters="sRGB">
<feFlood flood-opacity="0" result="BackgroundImageFix"/>
<feBlend mode="normal" in="SourceGraphic" in2="BackgroundImageFix" result="shape"/>
<feTurbulence type="fractalNoise" baseFrequency="0.2222222238779068 0.2222222238779068" numOctaves="3" seed="140" />
<feDisplacementMap in="shape" scale="0.40000000596046448" xChannelSelector="R" yChannelSelector="G" result="displacedImage" width="100%" height="100%" />
<feMerge result="effect1_texture_438_54812">
<feMergeNode in="displacedImage"/>
</feMerge>
</filter>
</defs>
</svg>
